<?xml version="1.0" encoding="utf-8"?>
<!-- Generator: Adobe Illustrator 28.1.0, SVG Export Plug-In . SVG Version: 6.00 Build 0)  -->
<svg version="1.1" id="Layer_1" xmlns="http://www.w3.org/2000/svg" xmlns:xlink="http://www.w3.org/1999/xlink" x="0px" y="0px"
	 viewBox="0 0 430 430" style="enable-background:new 0 0 430 430;" xml:space="preserve">
<style type="text/css">
	.st0{fill-rule:evenodd;clip-rule:evenodd;fill:#1D458D;}
	.st1{fill:none;stroke:#1D458D;stroke-width:9;stroke-miterlimit:8;}
</style>
<ellipse class="st0" cx="242.48" cy="23.79" rx="21.75" ry="21.5"/>
<ellipse class="st0" cx="44.48" cy="168.29" rx="21.75" ry="21.5"/>
<circle class="st0" cx="123.73" cy="195.79" r="18"/>
<ellipse class="st0" cx="246.23" cy="133.54" rx="18" ry="18.25"/>
<ellipse class="st0" cx="405.98" cy="66.79" rx="21.75" ry="21.5"/>
<ellipse class="st0" cx="268.98" cy="232.79" rx="21.75" ry="21.5"/>
<ellipse class="st0" cx="371.98" cy="220.79" rx="21.75" ry="21.5"/>
<ellipse class="st0" cx="62.48" cy="372.29" rx="21.75" ry="21.5"/>
<circle class="st0" cx="156.98" cy="302.04" r="21.75"/>
<ellipse class="st0" cx="311.48" cy="341.29" rx="21.75" ry="21.5"/>
<ellipse class="st0" cx="186.73" cy="407.54" rx="18" ry="17.75"/>
<circle class="st0" cx="18.98" cy="264.54" r="14.25"/>
<line class="st1" x1="44.73" y1="169.89" x2="245.53" y2="16.29"/>
<line class="st1" x1="121.73" y1="197.17" x2="245.38" y2="16.29"/>
<line class="st1" x1="246.73" y1="23.79" x2="246.73" y2="132.48"/>
<line class="st1" x1="250.23" y1="137.07" x2="404.64" y2="68.79"/>
<line class="st1" x1="410.39" y1="66.79" x2="373.23" y2="220.58"/>
<line class="st1" x1="311.23" y1="341.28" x2="371.95" y2="220.79"/>
<line class="st1" x1="311.5" y1="341.29" x2="189.23" y2="407.11"/>
<line class="st1" x1="157.23" y1="302.29" x2="186.79" y2="407.24"/>
<line class="st1" x1="64.73" y1="372.79" x2="189.02" y2="406.96"/>
<line class="st1" x1="18.23" y1="266.29" x2="65.32" y2="371.24"/>
<line class="st1" x1="46.21" y1="163.29" x2="20.73" y2="260.85"/>
<line class="st1" x1="41.73" y1="165.29" x2="123.98" y2="193.34"/>
<line class="st1" x1="20.23" y1="264.67" x2="120.59" y2="201.79"/>
<line class="st1" x1="156.87" y1="300.11" x2="122.73" y2="199.29"/>
<line class="st1" x1="127.23" y1="194.73" x2="246.82" y2="130.29"/>
<line class="st1" x1="267.88" y1="231.23" x2="248.23" y2="131.79"/>
<line class="st1" x1="270.73" y1="233.07" x2="408.17" y2="68.79"/>
<line class="st1" x1="267.73" y1="232.7" x2="372" y2="220.79"/>
<line class="st1" x1="20.73" y1="266.29" x2="155.44" y2="302.35"/>
<line class="st1" x1="65.73" y1="371.36" x2="162.27" y2="302.29"/>
<line class="st1" x1="162.23" y1="302.25" x2="268.84" y2="232.79"/>
<line class="st1" x1="311.14" y1="341.28" x2="254.23" y2="220.79"/>
<line class="st1" x1="311.45" y1="341.41" x2="155.73" y2="302.29"/>
<line class="st1" x1="264.37" y1="230.65" x2="119.23" y2="195.79"/>
</svg>
