<?xml version="1.0" encoding="utf-8"?>
<!-- Generator: Adobe Illustrator 28.1.0, SVG Export Plug-In . SVG Version: 6.00 Build 0)  -->
<svg version="1.1" id="Layer_1" xmlns="http://www.w3.org/2000/svg" xmlns:xlink="http://www.w3.org/1999/xlink" x="0px" y="0px"
	 viewBox="0 0 297.66 33.97" style="enable-background:new 0 0 297.66 33.97;" xml:space="preserve">
<style type="text/css">
	.st0{clip-path:url(#SVGID_00000028309827464520062060000014061739295311373716_);fill:#004294;}
	
		.st1{clip-path:url(#SVGID_00000139289255085445018380000000968784531925575871_);fill:url(#SVGID_00000177472179166195777090000005139428245000744880_);}
	.st2{clip-path:url(#SVGID_00000141429952542020683550000000167471964870989193_);fill:#004294;}
</style>
<g>
	<defs>
		<rect id="SVGID_1_" y="0" width="297.66" height="33.97"/>
	</defs>
	<clipPath id="SVGID_00000181068702472490780490000006955904909882974641_">
		<use xlink:href="#SVGID_1_"  style="overflow:visible;"/>
	</clipPath>
	<path style="clip-path:url(#SVGID_00000181068702472490780490000006955904909882974641_);fill:#004294;" d="M117.64,26.47h1.47
		c1.74,0,2.73,0.95,2.73,2.78c0,1.82-0.99,2.83-2.69,2.83h-1.52V26.47z M119.05,31.36c1.22,0,1.87-0.71,1.87-2.1
		c0-1.4-0.65-2.07-1.87-2.07h-0.52v4.17H119.05z"/>
	<path style="clip-path:url(#SVGID_00000181068702472490780490000006955904909882974641_);fill:#004294;" d="M122.53,29.99
		c0-1.36,0.94-2.21,1.93-2.21c1.12,0,1.72,0.8,1.72,1.99c0,0.17-0.02,0.34-0.04,0.44h-2.75c0.07,0.8,0.58,1.28,1.31,1.28
		c0.38,0,0.7-0.11,1.01-0.31l0.31,0.56c-0.39,0.26-0.88,0.44-1.43,0.44C123.45,32.18,122.53,31.37,122.53,29.99 M125.43,29.61
		c0-0.72-0.33-1.14-0.95-1.14c-0.53,0-1,0.4-1.09,1.14H125.43z"/>
	<path style="clip-path:url(#SVGID_00000181068702472490780490000006955904909882974641_);fill:#004294;" d="M127.07,27.89h0.72
		l0.07,0.46h0.02c0.37-0.31,0.83-0.57,1.3-0.57c1.08,0,1.68,0.85,1.68,2.14c0,1.44-0.87,2.26-1.82,2.26c-0.38,0-0.76-0.17-1.12-0.47
		l0.02,0.72v1.36h-0.88V27.89z M129.95,29.93c0-0.88-0.29-1.42-0.99-1.42c-0.33,0-0.65,0.17-1.01,0.51v2.05
		c0.33,0.28,0.66,0.38,0.92,0.38C129.49,31.46,129.95,30.92,129.95,29.93"/>
	<path style="clip-path:url(#SVGID_00000181068702472490780490000006955904909882974641_);fill:#004294;" d="M131.44,30.97
		c0-0.9,0.77-1.36,2.53-1.56c-0.01-0.49-0.18-0.92-0.81-0.92c-0.45,0-0.86,0.2-1.22,0.43l-0.33-0.59c0.44-0.27,1.03-0.55,1.71-0.55
		c1.05,0,1.54,0.66,1.54,1.78v2.52h-0.72l-0.08-0.48h-0.02c-0.39,0.33-0.84,0.58-1.35,0.58C131.96,32.18,131.44,31.71,131.44,30.97
		 M133.97,31v-1.03c-1.26,0.15-1.68,0.47-1.68,0.94c0,0.41,0.29,0.58,0.66,0.58C133.33,31.49,133.63,31.31,133.97,31"/>
	<path style="clip-path:url(#SVGID_00000181068702472490780490000006955904909882974641_);fill:#004294;" d="M136,27.89h0.72
		l0.07,0.76h0.02c0.3-0.54,0.75-0.86,1.2-0.86c0.21,0,0.35,0.03,0.48,0.09l-0.16,0.76c-0.15-0.05-0.25-0.07-0.42-0.07
		c-0.35,0-0.76,0.24-1.03,0.9v2.61H136V27.89z"/>
	<path style="clip-path:url(#SVGID_00000181068702472490780490000006955904909882974641_);fill:#004294;" d="M139.17,30.71v-2.12
		h-0.62v-0.66l0.65-0.05l0.1-1.16h0.75v1.16h1.1v0.7h-1.1v2.13c0,0.5,0.18,0.76,0.62,0.76c0.15,0,0.33-0.05,0.46-0.1l0.16,0.65
		c-0.24,0.08-0.52,0.15-0.83,0.15C139.5,32.18,139.17,31.6,139.17,30.71"/>
	<path style="clip-path:url(#SVGID_00000181068702472490780490000006955904909882974641_);fill:#004294;" d="M141.96,27.89h0.72
		l0.07,0.59h0.02c0.36-0.38,0.79-0.69,1.31-0.69c0.63,0,0.99,0.29,1.17,0.77c0.42-0.44,0.85-0.77,1.38-0.77c0.88,0,1.3,0.6,1.3,1.66
		v2.64h-0.89v-2.53c0-0.73-0.23-1.01-0.71-1.01c-0.29,0-0.6,0.19-0.96,0.57v2.97h-0.89v-2.53c0-0.73-0.22-1.01-0.71-1.01
		c-0.28,0-0.6,0.19-0.95,0.57v2.97h-0.88V27.89z"/>
	<path style="clip-path:url(#SVGID_00000181068702472490780490000006955904909882974641_);fill:#004294;" d="M148.8,29.99
		c0-1.36,0.94-2.21,1.93-2.21c1.12,0,1.72,0.8,1.72,1.99c0,0.17-0.02,0.34-0.04,0.44h-2.75c0.07,0.8,0.58,1.28,1.31,1.28
		c0.38,0,0.7-0.11,1.01-0.31l0.31,0.56c-0.39,0.26-0.88,0.44-1.43,0.44C149.72,32.18,148.8,31.37,148.8,29.99 M151.69,29.61
		c0-0.72-0.33-1.14-0.95-1.14c-0.53,0-1,0.4-1.09,1.14H151.69z"/>
	<path style="clip-path:url(#SVGID_00000181068702472490780490000006955904909882974641_);fill:#004294;" d="M153.33,27.89h0.72
		l0.07,0.58h0.02c0.39-0.37,0.82-0.69,1.4-0.69c0.9,0,1.3,0.6,1.3,1.66v2.64h-0.89v-2.53c0-0.73-0.21-1.01-0.72-1.01
		c-0.39,0-0.66,0.2-1.04,0.57v2.97h-0.88V27.89z"/>
	<path style="clip-path:url(#SVGID_00000181068702472490780490000006955904909882974641_);fill:#004294;" d="M158.16,30.71v-2.12
		h-0.62v-0.66l0.65-0.05l0.1-1.16h0.75v1.16h1.1v0.7h-1.1v2.13c0,0.5,0.18,0.76,0.62,0.76c0.15,0,0.33-0.05,0.46-0.1l0.16,0.65
		c-0.24,0.08-0.52,0.15-0.83,0.15C158.49,32.18,158.16,31.6,158.16,30.71"/>
	<path style="clip-path:url(#SVGID_00000181068702472490780490000006955904909882974641_);fill:#004294;" d="M162.27,29.99
		c0-1.4,0.95-2.21,1.99-2.21c1.05,0,1.99,0.81,1.99,2.21c0,1.39-0.95,2.19-1.99,2.19C163.22,32.18,162.27,31.38,162.27,29.99
		 M165.35,29.99c0-0.89-0.42-1.49-1.09-1.49c-0.66,0-1.08,0.6-1.08,1.49c0,0.89,0.42,1.47,1.08,1.47
		C164.93,31.47,165.35,30.88,165.35,29.99"/>
	<path style="clip-path:url(#SVGID_00000181068702472490780490000006955904909882974641_);fill:#004294;" d="M169.21,26.71
		c-0.15-0.07-0.32-0.11-0.46-0.11c-0.38,0-0.56,0.24-0.56,0.76v0.53h0.85v0.7h-0.85v3.49h-0.89v-3.49h-0.58v-0.66l0.58-0.05v-0.53
		c0-0.86,0.39-1.46,1.34-1.46c0.28,0,0.55,0.06,0.75,0.15L169.21,26.71z"/>
	
		<rect x="171.39" y="26.47" style="clip-path:url(#SVGID_00000181068702472490780490000006955904909882974641_);fill:#004294;" width="0.89" height="5.61"/>
	<path style="clip-path:url(#SVGID_00000181068702472490780490000006955904909882974641_);fill:#004294;" d="M173.58,27.89h0.72
		l0.07,0.58h0.02c0.39-0.37,0.82-0.69,1.4-0.69c0.9,0,1.3,0.6,1.3,1.66v2.64h-0.89v-2.53c0-0.73-0.21-1.01-0.72-1.01
		c-0.39,0-0.66,0.2-1.04,0.57v2.97h-0.88V27.89z"/>
	<path style="clip-path:url(#SVGID_00000181068702472490780490000006955904909882974641_);fill:#004294;" d="M177.98,29.99
		c0-1.36,0.87-2.21,1.82-2.21c0.49,0,0.79,0.18,1.14,0.47l-0.04-0.69v-1.56h0.88v6.08h-0.72l-0.08-0.47h-0.02
		c-0.32,0.32-0.75,0.57-1.23,0.57C178.67,32.18,177.98,31.38,177.98,29.99 M180.9,30.95V28.9c-0.32-0.28-0.62-0.38-0.93-0.38
		c-0.59,0-1.07,0.56-1.07,1.46c0,0.95,0.38,1.48,1.04,1.48C180.29,31.46,180.59,31.3,180.9,30.95"/>
	<path style="clip-path:url(#SVGID_00000181068702472490780490000006955904909882974641_);fill:#004294;" d="M182.95,30.53v-2.64
		h0.88v2.53c0,0.72,0.21,1.01,0.71,1.01c0.39,0,0.66-0.18,1.02-0.62v-2.91h0.89v4.19h-0.72l-0.07-0.63h-0.02
		c-0.38,0.44-0.8,0.73-1.39,0.73C183.34,32.18,182.95,31.6,182.95,30.53"/>
	<path style="clip-path:url(#SVGID_00000181068702472490780490000006955904909882974641_);fill:#004294;" d="M187.21,31.6l0.42-0.56
		c0.38,0.3,0.75,0.48,1.2,0.48c0.51,0,0.75-0.24,0.75-0.56c0-0.38-0.48-0.55-0.94-0.72c-0.56-0.21-1.21-0.51-1.21-1.22
		c0-0.7,0.57-1.23,1.5-1.23c0.57,0,1.03,0.23,1.38,0.5l-0.42,0.54c-0.29-0.21-0.59-0.37-0.95-0.37c-0.46,0-0.68,0.23-0.68,0.52
		c0,0.36,0.44,0.5,0.9,0.66c0.59,0.22,1.25,0.48,1.25,1.27c0,0.7-0.56,1.27-1.61,1.27C188.22,32.18,187.62,31.94,187.21,31.6"/>
	<path style="clip-path:url(#SVGID_00000181068702472490780490000006955904909882974641_);fill:#004294;" d="M191.21,30.71v-2.12
		h-0.62v-0.66l0.65-0.05l0.1-1.16h0.75v1.16h1.1v0.7h-1.1v2.13c0,0.5,0.18,0.76,0.62,0.76c0.15,0,0.33-0.05,0.46-0.1l0.16,0.65
		c-0.24,0.08-0.52,0.15-0.83,0.15C191.54,32.18,191.21,31.6,191.21,30.71"/>
	<path style="clip-path:url(#SVGID_00000181068702472490780490000006955904909882974641_);fill:#004294;" d="M194,27.89h0.72
		l0.07,0.76h0.02c0.3-0.54,0.75-0.86,1.2-0.86c0.21,0,0.35,0.03,0.48,0.09l-0.16,0.76c-0.15-0.05-0.25-0.07-0.42-0.07
		c-0.35,0-0.76,0.24-1.03,0.9v2.61H194V27.89z"/>
	<path style="clip-path:url(#SVGID_00000181068702472490780490000006955904909882974641_);fill:#004294;" d="M196.91,26.59
		c0-0.31,0.24-0.52,0.56-0.52c0.32,0,0.57,0.21,0.57,0.52c0,0.31-0.25,0.52-0.57,0.52C197.15,27.1,196.91,26.89,196.91,26.59
		 M197.04,27.89h0.88v4.19h-0.88V27.89z"/>
	<path style="clip-path:url(#SVGID_00000181068702472490780490000006955904909882974641_);fill:#004294;" d="M198.88,30.97
		c0-0.9,0.77-1.36,2.53-1.56c-0.01-0.49-0.18-0.92-0.81-0.92c-0.45,0-0.86,0.2-1.22,0.43l-0.33-0.59c0.44-0.27,1.03-0.55,1.71-0.55
		c1.05,0,1.54,0.66,1.54,1.78v2.52h-0.72l-0.08-0.48h-0.02c-0.39,0.33-0.84,0.58-1.35,0.58C199.4,32.18,198.88,31.71,198.88,30.97
		 M201.42,31v-1.03c-1.26,0.15-1.68,0.47-1.68,0.94c0,0.41,0.29,0.58,0.66,0.58C200.77,31.49,201.07,31.31,201.42,31"/>
	<path style="clip-path:url(#SVGID_00000181068702472490780490000006955904909882974641_);fill:#004294;" d="M203.44,31.1v-5.09
		h0.88v5.14c0,0.24,0.11,0.32,0.21,0.32c0.04,0,0.07,0,0.15-0.01l0.12,0.66c-0.11,0.04-0.26,0.07-0.48,0.07
		C203.68,32.18,203.44,31.78,203.44,31.1"/>
	<path style="clip-path:url(#SVGID_00000181068702472490780490000006955904909882974641_);fill:#004294;" d="M206.99,30.97
		c0-0.9,0.77-1.36,2.53-1.56c-0.01-0.49-0.19-0.92-0.81-0.92c-0.45,0-0.86,0.2-1.22,0.43l-0.33-0.59c0.44-0.27,1.03-0.55,1.71-0.55
		c1.05,0,1.54,0.66,1.54,1.78v2.52h-0.72l-0.08-0.48h-0.02c-0.38,0.33-0.84,0.58-1.35,0.58C207.5,32.18,206.99,31.71,206.99,30.97
		 M209.52,31v-1.03c-1.26,0.15-1.68,0.47-1.68,0.94c0,0.41,0.29,0.58,0.66,0.58C208.87,31.49,209.17,31.31,209.52,31"/>
	<path style="clip-path:url(#SVGID_00000181068702472490780490000006955904909882974641_);fill:#004294;" d="M211.55,27.89h0.72
		l0.07,0.58h0.02c0.39-0.37,0.82-0.69,1.4-0.69c0.9,0,1.3,0.6,1.3,1.66v2.64h-0.89v-2.53c0-0.73-0.21-1.01-0.72-1.01
		c-0.39,0-0.66,0.2-1.04,0.57v2.97h-0.88V27.89z"/>
	<path style="clip-path:url(#SVGID_00000181068702472490780490000006955904909882974641_);fill:#004294;" d="M215.95,29.99
		c0-1.36,0.87-2.21,1.82-2.21c0.49,0,0.79,0.18,1.14,0.47l-0.04-0.69v-1.56h0.88v6.08h-0.72l-0.08-0.47h-0.02
		c-0.32,0.32-0.75,0.57-1.23,0.57C216.63,32.18,215.95,31.38,215.95,29.99 M218.87,30.95V28.9c-0.32-0.28-0.62-0.38-0.93-0.38
		c-0.59,0-1.07,0.56-1.07,1.46c0,0.95,0.38,1.48,1.04,1.48C218.26,31.46,218.56,31.3,218.87,30.95"/>
	<path style="clip-path:url(#SVGID_00000181068702472490780490000006955904909882974641_);fill:#004294;" d="M222.26,31.36
		l0.52-0.61c0.41,0.4,0.96,0.66,1.51,0.66c0.69,0,1.07-0.32,1.07-0.79c0-0.51-0.39-0.67-0.91-0.9l-0.78-0.34
		c-0.55-0.23-1.15-0.66-1.15-1.47c0-0.88,0.79-1.55,1.86-1.55c0.66,0,1.29,0.27,1.72,0.71l-0.47,0.57c-0.35-0.31-0.75-0.5-1.25-0.5
		c-0.58,0-0.95,0.28-0.95,0.73c0,0.48,0.45,0.66,0.92,0.85l0.78,0.33c0.67,0.28,1.15,0.69,1.15,1.52c0,0.9-0.75,1.63-1.99,1.63
		C223.5,32.18,222.78,31.88,222.26,31.36"/>
	<path style="clip-path:url(#SVGID_00000181068702472490780490000006955904909882974641_);fill:#004294;" d="M229.01,32.33
		c-0.33,0.9-0.78,1.5-1.67,1.5c-0.21,0-0.38-0.03-0.53-0.08l0.17-0.69c0.08,0.02,0.2,0.06,0.31,0.06c0.46,0,0.73-0.34,0.89-0.79
		l0.08-0.29l-1.68-4.16h0.91l0.78,2.16c0.12,0.37,0.25,0.79,0.39,1.18h0.04l0.33-1.18l0.68-2.16h0.86L229.01,32.33z"/>
	<path style="clip-path:url(#SVGID_00000181068702472490780490000006955904909882974641_);fill:#004294;" d="M230.78,31.6l0.42-0.56
		c0.38,0.3,0.75,0.48,1.2,0.48c0.51,0,0.75-0.24,0.75-0.56c0-0.38-0.48-0.55-0.94-0.72c-0.56-0.21-1.21-0.51-1.21-1.22
		c0-0.7,0.57-1.23,1.5-1.23c0.57,0,1.03,0.23,1.38,0.5l-0.42,0.54c-0.29-0.21-0.59-0.37-0.95-0.37c-0.46,0-0.68,0.23-0.68,0.52
		c0,0.36,0.44,0.5,0.9,0.66c0.59,0.22,1.25,0.48,1.25,1.27c0,0.7-0.56,1.27-1.61,1.27C231.78,32.18,231.18,31.94,230.78,31.6"/>
	<path style="clip-path:url(#SVGID_00000181068702472490780490000006955904909882974641_);fill:#004294;" d="M234.77,30.71v-2.12
		h-0.62v-0.66l0.65-0.05l0.1-1.16h0.75v1.16h1.1v0.7h-1.1v2.13c0,0.5,0.18,0.76,0.62,0.76c0.15,0,0.33-0.05,0.46-0.1l0.16,0.65
		c-0.24,0.08-0.52,0.15-0.83,0.15C235.1,32.18,234.77,31.6,234.77,30.71"/>
	<path style="clip-path:url(#SVGID_00000181068702472490780490000006955904909882974641_);fill:#004294;" d="M237.13,29.99
		c0-1.36,0.94-2.21,1.93-2.21c1.12,0,1.73,0.8,1.73,1.99c0,0.17-0.02,0.34-0.04,0.44H238c0.07,0.8,0.58,1.28,1.31,1.28
		c0.38,0,0.7-0.11,1.01-0.31l0.31,0.56c-0.39,0.26-0.88,0.44-1.43,0.44C238.05,32.18,237.13,31.37,237.13,29.99 M240.03,29.61
		c0-0.72-0.33-1.14-0.95-1.14c-0.53,0-1,0.4-1.09,1.14H240.03z"/>
	<path style="clip-path:url(#SVGID_00000181068702472490780490000006955904909882974641_);fill:#004294;" d="M241.67,27.89h0.72
		l0.07,0.59h0.02c0.36-0.38,0.79-0.69,1.31-0.69c0.63,0,0.99,0.29,1.17,0.77c0.42-0.44,0.85-0.77,1.38-0.77c0.88,0,1.3,0.6,1.3,1.66
		v2.64h-0.89v-2.53c0-0.73-0.23-1.01-0.71-1.01c-0.29,0-0.6,0.19-0.96,0.57v2.97h-0.89v-2.53c0-0.73-0.22-1.01-0.71-1.01
		c-0.28,0-0.6,0.19-0.95,0.57v2.97h-0.88V27.89z"/>
	<path style="clip-path:url(#SVGID_00000181068702472490780490000006955904909882974641_);fill:#004294;" d="M248.36,31.6l0.42-0.56
		c0.38,0.3,0.75,0.48,1.2,0.48c0.51,0,0.75-0.24,0.75-0.56c0-0.38-0.48-0.55-0.94-0.72c-0.56-0.21-1.21-0.51-1.21-1.22
		c0-0.7,0.57-1.23,1.5-1.23c0.57,0,1.03,0.23,1.38,0.5l-0.42,0.54c-0.29-0.21-0.59-0.37-0.95-0.37c-0.46,0-0.68,0.23-0.68,0.52
		c0,0.36,0.44,0.5,0.9,0.66c0.59,0.22,1.25,0.48,1.25,1.27c0,0.7-0.56,1.27-1.61,1.27C249.37,32.18,248.77,31.94,248.36,31.6"/>
	<polygon style="clip-path:url(#SVGID_00000181068702472490780490000006955904909882974641_);fill:#004294;" points="254.08,26.47 
		257.43,26.47 257.43,27.21 254.97,27.21 254.97,28.77 257.05,28.77 257.05,29.52 254.97,29.52 254.97,31.33 257.51,31.33 
		257.51,32.08 254.08,32.08 	"/>
	<path style="clip-path:url(#SVGID_00000181068702472490780490000006955904909882974641_);fill:#004294;" d="M258.5,27.89h0.72
		l0.07,0.58h0.02c0.39-0.37,0.82-0.69,1.4-0.69c0.9,0,1.3,0.6,1.3,1.66v2.64h-0.89v-2.53c0-0.73-0.21-1.01-0.72-1.01
		c-0.39,0-0.66,0.2-1.04,0.57v2.97h-0.88V27.89z"/>
	<path style="clip-path:url(#SVGID_00000181068702472490780490000006955904909882974641_);fill:#004294;" d="M262.88,32.86
		c0-0.35,0.22-0.68,0.62-0.91v-0.04c-0.22-0.13-0.39-0.35-0.39-0.69c0-0.33,0.24-0.61,0.47-0.78v-0.03
		c-0.29-0.22-0.55-0.62-0.55-1.11c0-0.95,0.76-1.51,1.64-1.51c0.24,0,0.45,0.05,0.61,0.11h1.5v0.66h-0.81
		c0.16,0.17,0.28,0.45,0.28,0.77c0,0.92-0.7,1.44-1.58,1.44c-0.19,0-0.41-0.05-0.59-0.13c-0.14,0.12-0.23,0.24-0.23,0.44
		c0,0.25,0.17,0.41,0.71,0.41h0.78c1,0,1.52,0.3,1.52,1.02c0,0.81-0.86,1.46-2.22,1.46C263.62,33.97,262.88,33.59,262.88,32.86
		 M266,32.64c0-0.35-0.28-0.46-0.79-0.46h-0.64c-0.2,0-0.39-0.02-0.57-0.06c-0.26,0.18-0.36,0.4-0.36,0.61
		c0,0.41,0.43,0.66,1.13,0.66C265.51,33.39,266,33.03,266,32.64 M265.47,29.29c0-0.56-0.35-0.89-0.8-0.89c-0.45,0-0.8,0.32-0.8,0.89
		c0,0.56,0.36,0.9,0.8,0.9C265.11,30.19,265.47,29.85,265.47,29.29"/>
	<path style="clip-path:url(#SVGID_00000181068702472490780490000006955904909882974641_);fill:#004294;" d="M267.4,26.59
		c0-0.31,0.24-0.52,0.56-0.52c0.32,0,0.57,0.21,0.57,0.52c0,0.31-0.25,0.52-0.57,0.52C267.64,27.1,267.4,26.89,267.4,26.59
		 M267.53,27.89h0.88v4.19h-0.88V27.89z"/>
	<path style="clip-path:url(#SVGID_00000181068702472490780490000006955904909882974641_);fill:#004294;" d="M269.62,27.89h0.72
		l0.07,0.58h0.02c0.39-0.37,0.82-0.69,1.4-0.69c0.9,0,1.3,0.6,1.3,1.66v2.64h-0.89v-2.53c0-0.73-0.21-1.01-0.72-1.01
		c-0.39,0-0.66,0.2-1.04,0.57v2.97h-0.88V27.89z"/>
	<path style="clip-path:url(#SVGID_00000181068702472490780490000006955904909882974641_);fill:#004294;" d="M274.01,29.99
		c0-1.36,0.94-2.21,1.93-2.21c1.12,0,1.72,0.8,1.72,1.99c0,0.17-0.02,0.34-0.04,0.44h-2.75c0.07,0.8,0.58,1.28,1.31,1.28
		c0.38,0,0.7-0.11,1.01-0.31l0.31,0.56c-0.39,0.26-0.88,0.44-1.43,0.44C274.92,32.18,274.01,31.37,274.01,29.99 M276.9,29.61
		c0-0.72-0.33-1.14-0.95-1.14c-0.53,0-1,0.4-1.08,1.14H276.9z"/>
	<path style="clip-path:url(#SVGID_00000181068702472490780490000006955904909882974641_);fill:#004294;" d="M278.24,29.99
		c0-1.36,0.94-2.21,1.93-2.21c1.12,0,1.72,0.8,1.72,1.99c0,0.17-0.02,0.34-0.04,0.44h-2.75c0.07,0.8,0.58,1.28,1.31,1.28
		c0.38,0,0.7-0.11,1.01-0.31l0.31,0.56c-0.39,0.26-0.88,0.44-1.43,0.44C279.16,32.18,278.24,31.37,278.24,29.99 M281.14,29.61
		c0-0.72-0.33-1.14-0.95-1.14c-0.53,0-1,0.4-1.08,1.14H281.14z"/>
	<path style="clip-path:url(#SVGID_00000181068702472490780490000006955904909882974641_);fill:#004294;" d="M282.78,27.89h0.72
		l0.07,0.76h0.02c0.3-0.54,0.75-0.86,1.2-0.86c0.21,0,0.35,0.03,0.48,0.09l-0.16,0.76c-0.15-0.05-0.25-0.07-0.42-0.07
		c-0.35,0-0.76,0.24-1.03,0.9v2.61h-0.88V27.89z"/>
	<path style="clip-path:url(#SVGID_00000181068702472490780490000006955904909882974641_);fill:#004294;" d="M285.68,26.59
		c0-0.31,0.24-0.52,0.56-0.52c0.32,0,0.57,0.21,0.57,0.52c0,0.31-0.25,0.52-0.57,0.52C285.92,27.1,285.68,26.89,285.68,26.59
		 M285.81,27.89h0.88v4.19h-0.88V27.89z"/>
	<path style="clip-path:url(#SVGID_00000181068702472490780490000006955904909882974641_);fill:#004294;" d="M287.9,27.89h0.72
		l0.07,0.58h0.02c0.39-0.37,0.82-0.69,1.4-0.69c0.9,0,1.3,0.6,1.3,1.66v2.64h-0.89v-2.53c0-0.73-0.21-1.01-0.72-1.01
		c-0.39,0-0.66,0.2-1.04,0.57v2.97h-0.88V27.89z"/>
	<path style="clip-path:url(#SVGID_00000181068702472490780490000006955904909882974641_);fill:#004294;" d="M292.28,32.86
		c0-0.35,0.22-0.68,0.62-0.91v-0.04c-0.22-0.13-0.39-0.35-0.39-0.69c0-0.33,0.24-0.61,0.47-0.78v-0.03
		c-0.28-0.22-0.55-0.62-0.55-1.11c0-0.95,0.76-1.51,1.64-1.51c0.24,0,0.45,0.05,0.62,0.11h1.5v0.66h-0.81
		c0.16,0.17,0.28,0.45,0.28,0.77c0,0.92-0.7,1.44-1.59,1.44c-0.19,0-0.41-0.05-0.59-0.13c-0.14,0.12-0.23,0.24-0.23,0.44
		c0,0.25,0.17,0.41,0.71,0.41h0.78c1,0,1.53,0.3,1.53,1.02c0,0.81-0.86,1.46-2.22,1.46C293.02,33.97,292.28,33.59,292.28,32.86
		 M295.4,32.64c0-0.35-0.28-0.46-0.79-0.46h-0.64c-0.2,0-0.39-0.02-0.57-0.06c-0.25,0.18-0.36,0.4-0.36,0.61
		c0,0.41,0.43,0.66,1.13,0.66C294.91,33.39,295.4,33.03,295.4,32.64 M294.87,29.29c0-0.56-0.35-0.89-0.8-0.89
		c-0.45,0-0.8,0.32-0.8,0.89c0,0.56,0.36,0.9,0.8,0.9C294.51,30.19,294.87,29.85,294.87,29.29"/>
	
		<rect x="52.6" y="0.45" style="clip-path:url(#SVGID_00000181068702472490780490000006955904909882974641_);fill:#004294;" width="5.17" height="19.44"/>
	<polygon style="clip-path:url(#SVGID_00000181068702472490780490000006955904909882974641_);fill:#004294;" points="80.21,0.45 
		80.21,4.5 86.71,4.5 86.71,19.89 91.87,19.89 91.87,4.5 98.37,4.5 98.37,0.45 	"/>
	<path style="clip-path:url(#SVGID_00000181068702472490780490000006955904909882974641_);fill:#004294;" d="M73.02,8.15h-4.42
		c-1.15,0-1.97-0.56-1.97-1.82c0-1.26,0.82-1.82,1.97-1.82h9.39V0.45h-9.9c-3.69,0-6.69,2.13-6.69,5.87c0,3.74,3,5.87,6.69,5.87
		h4.55c1.14,0,1.97,0.57,1.97,1.82c0,1.26-0.83,1.82-1.97,1.82H62.11v4.05h10.91c3.69,0,6.69-2.13,6.69-5.87
		C79.7,10.28,76.71,8.15,73.02,8.15"/>
	<polygon style="clip-path:url(#SVGID_00000181068702472490780490000006955904909882974641_);fill:#004294;" points="36.87,0.45 
		29.56,17.94 22.59,10.17 31.31,0.45 25.41,0.45 17.15,9.68 17.15,0.45 11.99,0.45 11.99,19.89 17.15,19.89 17.15,10.66 
		25.41,19.89 34,19.89 39.92,5.23 44.21,16.01 37.38,16.01 39,19.89 51.08,19.89 42.97,0.45 	"/>
</g>
<g>
	<defs>
		<path id="SVGID_00000010300449771456886870000011746040583803874997_" d="M0,28.05c18.02,2.56,36.45,3.89,55.18,3.89
			c18.74,0,37.16-1.33,55.18-3.89c-18.03-2.56-36.45-3.89-55.18-3.89C36.45,24.17,18.02,25.49,0,28.05"/>
	</defs>
	<clipPath id="SVGID_00000103962180180528967830000003321862180150694328_">
		<use xlink:href="#SVGID_00000010300449771456886870000011746040583803874997_"  style="overflow:visible;"/>
	</clipPath>
	
		<linearGradient id="SVGID_00000078032393810570097840000002886931559162084224_" gradientUnits="userSpaceOnUse" x1="9.094947e-13" y1="33.9656" x2="1" y2="33.9656" gradientTransform="matrix(110.3598 0 0 110.3598 0 -3720.3826)">
		<stop  offset="0" style="stop-color:#59BDED"/>
		<stop  offset="0.05" style="stop-color:#59BDED"/>
		<stop  offset="0.1642" style="stop-color:#3FADE3"/>
		<stop  offset="0.3876" style="stop-color:#1291D1"/>
		<stop  offset="0.5" style="stop-color:#0086CA"/>
		<stop  offset="0.5399" style="stop-color:#007FC5"/>
		<stop  offset="0.6756" style="stop-color:#006BB7"/>
		<stop  offset="0.8122" style="stop-color:#005FAF"/>
		<stop  offset="0.95" style="stop-color:#005BAC"/>
		<stop  offset="1" style="stop-color:#005BAC"/>
	</linearGradient>
	
		<rect y="24.17" style="clip-path:url(#SVGID_00000103962180180528967830000003321862180150694328_);fill:url(#SVGID_00000078032393810570097840000002886931559162084224_);" width="110.36" height="7.77"/>
</g>
<g>
	<defs>
		<rect id="SVGID_00000095333867863475957580000001463606850800179631_" y="0" width="297.66" height="33.97"/>
	</defs>
	<clipPath id="SVGID_00000148643774630963140950000010324148025891051928_">
		<use xlink:href="#SVGID_00000095333867863475957580000001463606850800179631_"  style="overflow:visible;"/>
	</clipPath>
	<path style="clip-path:url(#SVGID_00000148643774630963140950000010324148025891051928_);fill:#004294;" d="M127.78,9.86
		l-1.26,1.84c-0.91-0.32-1.83-0.9-2.76-1.75c-0.93-0.85-1.56-1.68-1.87-2.47c-0.28,0.82-0.88,1.66-1.78,2.51
		c-0.9,0.85-1.89,1.51-2.97,1.98l-1.32-1.91c1.58-0.79,2.71-1.79,3.39-2.99c0.65-1.16,0.97-2.68,0.97-4.55V0.96h3.31v1.52
		C123.5,5.97,124.92,8.42,127.78,9.86 M132.95,19.58H121.2c-0.54,0-0.93-0.11-1.17-0.32c-0.24-0.21-0.35-0.58-0.35-1.1v-5.27h3.27v4
		c0,0.34,0.2,0.51,0.59,0.51h9.42V19.58z M135.35,7.24h-3.15v6.64h-3.27V0.72h3.27v4.37h3.15V7.24z"/>
	<path style="clip-path:url(#SVGID_00000148643774630963140950000010324148025891051928_);fill:#004294;" d="M133.01,19.64H121.2
		c-0.55,0-0.96-0.11-1.21-0.33c-0.25-0.22-0.38-0.61-0.38-1.14v-5.33h3.39v4.06c0,0.31,0.17,0.45,0.53,0.45h9.48V19.64z
		 M119.74,12.95v5.21c0,0.5,0.11,0.85,0.33,1.05c0.22,0.2,0.6,0.3,1.12,0.3h11.69v-2.05h-9.35c-0.54,0-0.65-0.31-0.65-0.58v-3.93
		H119.74z M132.26,13.94h-3.39V0.66h3.39v4.37h3.15V7.3h-3.15V13.94z M129,13.81h3.14V7.17h3.15V5.15h-3.15V0.78H129V13.81z
		 M117.12,12.05l-0.03-0.04l-1.36-1.97l0.06-0.03c1.56-0.78,2.69-1.78,3.36-2.97c0.64-1.15,0.97-2.67,0.97-4.52V0.9h3.43v1.58
		c0,3.44,1.43,5.91,4.25,7.32l0.06,0.03l-1.32,1.94l-0.05-0.02c-0.91-0.32-1.85-0.91-2.78-1.76c-0.88-0.8-1.49-1.59-1.82-2.35
		c-0.31,0.78-0.89,1.58-1.74,2.39c-0.9,0.85-1.91,1.52-2.99,1.99L117.12,12.05z M115.92,10.09l1.25,1.81
		c1.05-0.46,2.03-1.11,2.91-1.95c0.89-0.84,1.48-1.68,1.76-2.49l0.06-0.16l0.06,0.16c0.31,0.78,0.93,1.61,1.85,2.45
		c0.91,0.83,1.81,1.41,2.69,1.73l1.19-1.75c-2.82-1.44-4.25-3.93-4.25-7.4V1.03h-3.18v1.5c0,1.87-0.33,3.41-0.98,4.58
		C118.6,8.29,117.47,9.3,115.92,10.09"/>
	<path style="clip-path:url(#SVGID_00000148643774630963140950000010324148025891051928_);fill:#004294;" d="M153.55,11.07h-3.27
		V6.66h-2.66c-0.23,1.22-0.83,2.17-1.81,2.86c-0.97,0.69-2.17,1.03-3.59,1.03c-1.64,0-2.97-0.45-3.99-1.35
		c-1.02-0.9-1.53-2.11-1.53-3.63c0-1.53,0.51-2.74,1.53-3.63c1.02-0.89,2.35-1.33,3.99-1.33c1.43,0,2.64,0.35,3.61,1.03
		c0.97,0.69,1.58,1.64,1.81,2.86h2.64V0.72h3.27V11.07z M144.64,5.58c0-0.78-0.23-1.4-0.69-1.88c-0.46-0.47-1.04-0.71-1.72-0.71
		c-0.7,0-1.28,0.24-1.74,0.71c-0.45,0.47-0.68,1.1-0.68,1.88c0,0.78,0.23,1.41,0.68,1.88c0.45,0.47,1.03,0.71,1.74,0.71
		c0.69,0,1.26-0.24,1.72-0.71C144.41,6.98,144.64,6.36,144.64,5.58 M153.55,20.13h-11.4c-0.61,0-1.04-0.13-1.31-0.4
		c-0.26-0.27-0.4-0.71-0.4-1.32v-6.48h3.27v1.89h6.57v-1.89h3.27V20.13z M150.28,17.98v-2.03h-6.57v1.48c0,0.37,0.19,0.55,0.59,0.55
		H150.28z"/>
	<path style="clip-path:url(#SVGID_00000148643774630963140950000010324148025891051928_);fill:#004294;" d="M153.61,20.19h-11.46
		c-0.62,0-1.08-0.14-1.35-0.42c-0.27-0.28-0.41-0.74-0.41-1.36v-6.54h3.39v1.89h6.45v-1.89h3.39V20.19z M140.5,11.99v6.41
		c0,0.59,0.13,1.03,0.38,1.28c0.25,0.25,0.68,0.38,1.26,0.38h11.34v-8.07h-3.14v1.89h-6.7v-1.89H140.5z M150.34,18.04h-6.05
		c-0.42,0-0.65-0.21-0.65-0.62v-1.54h6.7V18.04z M143.77,16.01v1.41c0,0.33,0.17,0.49,0.53,0.49h5.93v-1.91H143.77z M153.61,11.13
		h-3.39V6.72h-2.54c-0.24,1.2-0.85,2.16-1.82,2.85c-0.98,0.69-2.2,1.05-3.63,1.05c-1.65,0-3-0.46-4.03-1.37
		c-1.03-0.91-1.55-2.15-1.55-3.67c0-1.54,0.52-2.78,1.55-3.67c1.03-0.9,2.38-1.35,4.03-1.35c1.44,0,2.67,0.35,3.65,1.05
		c0.97,0.69,1.58,1.65,1.82,2.85h2.52V0.66h3.39V11.13z M150.34,11.01h3.14V0.78h-3.14v3.79h-2.75l-0.01-0.05
		c-0.22-1.19-0.82-2.14-1.78-2.82c-0.96-0.68-2.16-1.02-3.58-1.02c-1.61,0-2.94,0.44-3.95,1.32c-1,0.87-1.51,2.08-1.51,3.58
		c0,1.49,0.51,2.7,1.51,3.58c1,0.89,2.33,1.34,3.95,1.34c1.4,0,2.6-0.35,3.56-1.02c0.95-0.68,1.55-1.63,1.78-2.82l0.01-0.05h2.77
		V11.01z M142.23,8.22c-0.72,0-1.32-0.24-1.78-0.73c-0.46-0.48-0.7-1.13-0.7-1.92c0-0.79,0.24-1.44,0.7-1.92
		c0.46-0.48,1.06-0.73,1.78-0.73c0.7,0,1.3,0.24,1.77,0.73c0.47,0.48,0.71,1.13,0.71,1.92c0,0.79-0.24,1.44-0.71,1.92
		S142.93,8.22,142.23,8.22 M142.23,3.06c-0.68,0-1.25,0.23-1.69,0.69c-0.44,0.46-0.66,1.07-0.66,1.83c0,0.76,0.22,1.38,0.66,1.83
		s1.01,0.69,1.69,0.69c0.67,0,1.23-0.23,1.68-0.69c0.45-0.46,0.67-1.07,0.67-1.83c0-0.76-0.23-1.37-0.67-1.83
		C143.46,3.29,142.9,3.06,142.23,3.06"/>
	<path style="clip-path:url(#SVGID_00000148643774630963140950000010324148025891051928_);fill:#004294;" d="M168.02,2.56l-0.39,7.3
		h-8.16c-1.15,0-1.72-0.53-1.72-1.6V0.98h8.66C167.54,0.98,168.07,1.51,168.02,2.56 M174.69,18.08l-0.85,1.99
		c-1.27-0.12-2.52-0.48-3.73-1.07c-1.3-0.62-2.22-1.35-2.76-2.19c-0.46,0.87-1.33,1.61-2.62,2.21c-1.23,0.59-2.61,0.96-4.14,1.11
		l-0.83-2.01c2.92-0.42,4.75-1.43,5.48-3.03h-4.89v-2.13h5.26v-1.89h3.27v1.89h5.28v2.13h-4.85
		C170.12,16.67,171.92,17.67,174.69,18.08 M164.65,7.73V3.55c0-0.29-0.14-0.43-0.41-0.43h-3.23v4.1c0,0.34,0.17,0.51,0.51,0.51
		H164.65z M173.84,11.4h-3.27V0.72h3.27V11.4z"/>
	<path style="clip-path:url(#SVGID_00000148643774630963140950000010324148025891051928_);fill:#004294;" d="M160.55,20.2
		l-0.88-2.12l0.08-0.01c2.83-0.41,4.64-1.39,5.39-2.91h-4.85v-2.26h5.26v-1.89h3.39v1.89h5.28v2.26h-4.81
		c0.83,1.51,2.62,2.47,5.3,2.87l0.08,0.01l-0.9,2.1l-0.04,0c-1.27-0.12-2.53-0.48-3.75-1.07c-1.26-0.6-2.18-1.31-2.73-2.13
		c-0.48,0.84-1.35,1.56-2.6,2.15c-1.23,0.59-2.63,0.96-4.16,1.11L160.55,20.2z M159.85,18.17l0.78,1.89c1.5-0.15,2.87-0.52,4.07-1.1
		c1.27-0.59,2.14-1.33,2.59-2.19l0.05-0.09l0.06,0.09c0.53,0.83,1.45,1.56,2.74,2.17c1.19,0.58,2.42,0.93,3.67,1.06l0.8-1.87
		c-2.74-0.42-4.54-1.43-5.36-3.01l-0.05-0.09h4.89v-2.01h-5.28v-1.89h-3.14v1.89h-5.26v2.01h4.92l-0.04,0.09
		C164.56,16.71,162.73,17.74,159.85,18.17 M173.9,11.46h-3.39V0.66h3.39V11.46z M170.64,11.34h3.14V0.78h-3.14V11.34z M167.69,9.92
		h-8.22c-1.19,0-1.79-0.56-1.79-1.66V0.92h8.73c0.59,0,1.04,0.15,1.31,0.44c0.26,0.28,0.38,0.68,0.35,1.21L167.69,9.92z
		 M157.81,1.05v7.21c0,1.03,0.55,1.54,1.66,1.54h8.1l0.38-7.24c0.02-0.49-0.08-0.86-0.32-1.11c-0.25-0.27-0.66-0.4-1.22-0.4H157.81z
		 M164.71,7.79h-3.19c-0.37,0-0.57-0.2-0.57-0.57V3.05h3.29c0.31,0,0.47,0.17,0.47,0.49V7.79z M161.08,3.18v4.04
		c0,0.31,0.14,0.45,0.44,0.45h3.06V3.55c0-0.25-0.11-0.37-0.34-0.37H161.08z"/>
	<path style="clip-path:url(#SVGID_00000148643774630963140950000010324148025891051928_);fill:#004294;" d="M189.54,13.24
		l-1.48,1.91c-0.87-0.4-1.81-1.14-2.84-2.23c-1.03-1.09-1.68-2.07-1.97-2.93c-0.24,0.89-0.84,1.86-1.8,2.93
		c-0.95,1.07-1.95,1.89-2.99,2.46l-1.56-1.85c1.72-1.19,2.94-2.56,3.65-4.12c0.65-1.42,0.97-3.24,0.97-5.45V0.96h3.31v2.99
		C184.84,8.07,186.41,11.16,189.54,13.24 M194.13,19.88h-3.27V0.72h3.27V19.88z"/>
	<path style="clip-path:url(#SVGID_00000148643774630963140950000010324148025891051928_);fill:#004294;" d="M194.19,19.94h-3.39
		V0.66h3.39V19.94z M190.93,19.82h3.14V0.78h-3.14V19.82z M178.45,15.45l-1.64-1.94l0.06-0.04c1.7-1.18,2.92-2.55,3.63-4.09
		c0.64-1.41,0.97-3.23,0.97-5.43V0.9h3.43v3.06c0,4.07,1.57,7.18,4.68,9.23l0.06,0.04l-0.04,0.05l-1.51,1.94l-0.04-0.02
		c-0.87-0.4-1.83-1.15-2.86-2.25c-0.96-1.02-1.6-1.95-1.92-2.77c-0.27,0.85-0.86,1.78-1.75,2.77c-0.95,1.07-1.97,1.9-3.01,2.47
		L178.45,15.45z M177,13.54l1.48,1.75c1.02-0.57,2-1.38,2.93-2.42c0.94-1.05,1.54-2.03,1.78-2.91l0.06-0.2l0.06,0.19
		c0.28,0.85,0.94,1.83,1.96,2.91c1,1.06,1.93,1.8,2.78,2.2l1.41-1.81c-3.11-2.08-4.68-5.21-4.68-9.3V1.03h-3.18v2.93
		c0,2.21-0.33,4.06-0.98,5.48C179.9,10.98,178.69,12.36,177,13.54"/>
	<path style="clip-path:url(#SVGID_00000148643774630963140950000010324148025891051928_);fill:#004294;" d="M215.78,16.15h-18.55
		V14h18.55V16.15z M214.65,8.86l-0.87,2.05c-1.51-0.33-2.97-0.96-4.36-1.9c-1.39-0.94-2.33-1.94-2.82-3
		c-0.46,1.09-1.34,2.08-2.64,2.96c-1.3,0.88-2.81,1.53-4.55,1.96l-0.95-2.09c4.25-1.23,6.37-3.55,6.37-6.97V1.09h3.37v0.84
		c0,1.57,0.55,2.95,1.65,4.14C210.95,7.26,212.55,8.19,214.65,8.86"/>
	<path style="clip-path:url(#SVGID_00000148643774630963140950000010324148025891051928_);fill:#004294;" d="M215.84,16.21h-18.67
		v-2.28h18.67V16.21z M197.3,16.09h18.42v-2.03H197.3V16.09z M199.37,11l-0.02-0.05l-0.98-2.16l0.07-0.02
		c4.2-1.21,6.33-3.54,6.33-6.91V1.03h3.49v0.9c0,1.55,0.55,2.93,1.64,4.1c1.09,1.17,2.69,2.11,4.77,2.77l0.06,0.02l-0.92,2.16
		l-0.05-0.01c-1.52-0.33-2.99-0.97-4.38-1.91c-1.34-0.9-2.28-1.88-2.78-2.9c-0.48,1.05-1.35,2.01-2.61,2.86
		c-1.3,0.88-2.84,1.54-4.57,1.97L199.37,11z M198.54,8.87l0.9,1.98c1.69-0.42,3.2-1.07,4.48-1.93c1.28-0.87,2.16-1.86,2.62-2.93
		l0.05-0.13l0.06,0.13c0.48,1.05,1.42,2.05,2.8,2.98c1.36,0.92,2.81,1.55,4.29,1.88l0.83-1.94c-2.07-0.67-3.67-1.6-4.76-2.78
		c-1.11-1.19-1.67-2.6-1.67-4.18V1.15h-3.24v0.72C204.89,5.28,202.75,7.64,198.54,8.87"/>
	<path style="clip-path:url(#SVGID_00000148643774630963140950000010324148025891051928_);fill:#004294;" d="M227.13,10.6
		c-1.49,0.47-3.2,0.7-5.13,0.7c-0.62,0-1.21-0.03-1.75-0.1c-0.66-0.08-1.12-0.29-1.37-0.61s-0.38-0.83-0.38-1.52V0.98h7.59v2.07
		h-4.61v1.87h3.85v2.05h-3.85v1.35c0,0.41,0.18,0.64,0.55,0.7c0.43,0.08,0.93,0.12,1.5,0.12c1.12,0,2.21-0.12,3.25-0.37L227.13,10.6
		z M235.3,13.8l-0.26,6.33H223.6c-0.62,0-1.07-0.13-1.33-0.4c-0.26-0.27-0.4-0.71-0.4-1.32v-5.8h12.34
		C234.96,12.61,235.33,13,235.3,13.8 M231.98,18v-2.85c0-0.27-0.13-0.41-0.39-0.41h-6.45v2.7c0,0.37,0.19,0.55,0.57,0.55H231.98z
		 M231.29,11.66h-2.78V7.01h-2.31V4.9h2.31V0.72h2.78V11.66z M235.24,11.7h-2.88V0.72h2.88V11.7z"/>
	<path style="clip-path:url(#SVGID_00000148643774630963140950000010324148025891051928_);fill:#004294;" d="M235.1,20.19h-11.5
		c-0.64,0-1.1-0.14-1.37-0.42c-0.27-0.28-0.41-0.74-0.41-1.37v-5.86h12.4c0.39,0,0.68,0.1,0.87,0.3c0.2,0.21,0.3,0.53,0.28,0.95
		L235.1,20.19z M221.93,12.67v5.74c0,0.6,0.13,1.03,0.38,1.28c0.25,0.25,0.68,0.38,1.29,0.38h11.39l0.26-6.27
		c0.01-0.39-0.07-0.68-0.25-0.86c-0.17-0.17-0.43-0.26-0.79-0.26H221.93z M232.04,18.06h-6.33c-0.41,0-0.63-0.21-0.63-0.61v-2.77
		h6.51c0.29,0,0.45,0.16,0.45,0.47V18.06z M225.2,14.8v2.64c0,0.34,0.16,0.49,0.51,0.49h6.21v-2.79c0-0.24-0.1-0.35-0.32-0.35H225.2
		z M235.3,11.77h-3.01V0.66h3.01V11.77z M232.42,11.64h2.76V0.78h-2.76V11.64z M231.35,11.73h-2.9V7.07h-2.31V4.84h2.31V0.66h2.9
		V11.73z M228.57,11.6h2.65V0.78h-2.65v4.18h-2.31v1.99h2.31V11.6z M221.99,11.36c-0.62,0-1.21-0.03-1.75-0.1
		c-0.68-0.08-1.15-0.3-1.41-0.64c-0.26-0.34-0.39-0.86-0.39-1.55V0.92h7.71v2.19h-4.61v1.74h3.86v2.17h-3.86v1.29
		c0,0.38,0.16,0.58,0.5,0.64c0.43,0.08,0.93,0.12,1.49,0.12c1.12,0,2.2-0.12,3.23-0.37l0.06-0.01l0.37,1.94l-0.05,0.02
		C225.66,11.12,223.92,11.36,221.99,11.36 M218.56,1.05v8.01c0,0.67,0.12,1.16,0.36,1.48c0.24,0.31,0.68,0.51,1.33,0.59
		c0.54,0.07,1.12,0.1,1.74,0.1c1.9,0,3.6-0.23,5.06-0.68l-0.32-1.71c-1.02,0.24-2.1,0.36-3.2,0.36c-0.57,0-1.08-0.04-1.51-0.12
		c-0.39-0.06-0.6-0.32-0.6-0.76V6.91h3.85V4.98h-3.85V2.99h4.61V1.05H218.56z"/>
	<path style="clip-path:url(#SVGID_00000148643774630963140950000010324148025891051928_);fill:#004294;" d="M256.37,11.17h-18.55
		V9.02h5.9V5.49h3.29v3.53h9.35V11.17z M254.03,2.26l-0.47,5.37h-3.12v-4c0-0.49-0.21-0.74-0.63-0.74h-9.43V0.74h12.38
		C253.7,0.74,254.13,1.24,254.03,2.26 M252.92,16.28c0,1.35-0.5,2.41-1.5,3.18c-1.04,0.78-2.49,1.17-4.34,1.17
		c-1.85,0-3.29-0.39-4.31-1.16c-1.02-0.77-1.53-1.83-1.53-3.19c0-1.34,0.51-2.4,1.53-3.18c1.02-0.78,2.46-1.17,4.31-1.17
		c1.85,0,3.29,0.39,4.31,1.17C252.41,13.88,252.92,14.94,252.92,16.28 M249.79,16.28c0-0.67-0.25-1.21-0.74-1.63
		c-0.49-0.42-1.15-0.62-1.98-0.62s-1.49,0.21-1.98,0.62c-0.49,0.42-0.74,0.96-0.74,1.63c0,0.68,0.25,1.23,0.74,1.65
		c0.49,0.42,1.15,0.63,1.98,0.63s1.49-0.21,1.98-0.63C249.54,17.51,249.79,16.96,249.79,16.28"/>
	<path style="clip-path:url(#SVGID_00000148643774630963140950000010324148025891051928_);fill:#004294;" d="M247.07,20.68
		c-1.86,0-3.32-0.39-4.35-1.17c-1.03-0.78-1.56-1.87-1.56-3.24c0-1.35,0.52-2.44,1.56-3.23c1.03-0.78,2.49-1.18,4.35-1.18
		c1.86,0,3.32,0.4,4.35,1.18c1.03,0.79,1.56,1.87,1.56,3.23c0,1.37-0.51,2.45-1.52,3.23C250.4,20.29,248.93,20.68,247.07,20.68
		 M247.07,11.99c-1.83,0-3.27,0.39-4.27,1.15c-1,0.76-1.51,1.82-1.51,3.13c0,1.33,0.51,2.38,1.51,3.14
		c1.01,0.76,2.44,1.15,4.27,1.15c1.83,0,3.28-0.39,4.31-1.16c0.98-0.75,1.48-1.8,1.48-3.13c0-1.31-0.51-2.36-1.51-3.13
		C250.34,12.38,248.9,11.99,247.07,11.99 M247.07,18.61c-0.84,0-1.51-0.22-2.02-0.64c-0.51-0.43-0.76-1-0.76-1.7
		c0-0.69,0.26-1.25,0.76-1.68c0.5-0.42,1.18-0.64,2.02-0.64s1.51,0.22,2.02,0.64c0.51,0.43,0.76,0.99,0.76,1.68
		c0,0.7-0.26,1.27-0.76,1.7C248.59,18.4,247.91,18.61,247.07,18.61 M247.07,14.08c-0.81,0-1.46,0.2-1.94,0.61
		c-0.48,0.4-0.72,0.94-0.72,1.58c0,0.66,0.24,1.2,0.72,1.6c0.48,0.41,1.13,0.61,1.94,0.61c0.81,0,1.46-0.2,1.94-0.61
		c0.48-0.4,0.72-0.94,0.72-1.6c0-0.65-0.24-1.18-0.72-1.58C248.53,14.29,247.88,14.08,247.07,14.08 M256.43,11.23h-18.67V8.96h5.9
		V5.43h3.41v3.53h9.35V11.23z M237.88,11.11h18.42V9.08h-9.35V5.56h-3.16v3.53h-5.9V11.11z M253.62,7.69h-3.24V3.63
		c0-0.46-0.18-0.68-0.57-0.68h-9.5V0.68h12.44c0.47,0,0.83,0.12,1.05,0.37c0.24,0.26,0.34,0.67,0.29,1.21L253.62,7.69z M250.5,7.56
		h3.01l0.46-5.31c0.05-0.5-0.04-0.88-0.26-1.11c-0.2-0.22-0.52-0.33-0.96-0.33h-12.32v2.03h9.37c0.32,0,0.69,0.14,0.69,0.8V7.56z"/>
	<path style="clip-path:url(#SVGID_00000148643774630963140950000010324148025891051928_);fill:#004294;" d="M269.64,4.59h-1.62
		c0.47,0.71,0.71,1.55,0.71,2.52c0,1.35-0.44,2.42-1.32,3.21c-0.88,0.79-2.08,1.18-3.59,1.18c-1.52,0-2.72-0.39-3.6-1.18
		c-0.89-0.79-1.33-1.86-1.33-3.21c0-0.97,0.24-1.81,0.73-2.52h-1.74V2.44h4.3V0.06h3.27v2.38h4.2V4.59z M274.32,14.29l-0.35,5.59
		H271v-4.26c0-0.44-0.2-0.66-0.61-0.66h-9.23v-2.15H273C273.95,12.81,274.39,13.3,274.32,14.29 M265.72,7.11
		c0-0.64-0.18-1.16-0.53-1.55c-0.35-0.39-0.81-0.58-1.38-0.58c-0.58,0-1.05,0.2-1.39,0.58c-0.35,0.39-0.52,0.91-0.52,1.55
		s0.17,1.16,0.52,1.55c0.35,0.39,0.81,0.59,1.39,0.59c0.57,0,1.03-0.19,1.38-0.59C265.54,8.27,265.72,7.76,265.72,7.11 M277.39,7.63
		h-3.15v4.28h-3.27V0.72h3.27v4.75h3.15V7.63z"/>
	<path style="clip-path:url(#SVGID_00000148643774630963140950000010324148025891051928_);fill:#004294;" d="M274.04,19.94h-3.1
		v-4.33c0-0.4-0.17-0.59-0.55-0.59h-9.29v-2.28H273c0.48,0,0.84,0.12,1.07,0.37c0.24,0.26,0.35,0.65,0.31,1.17L274.04,19.94z
		 M271.06,19.82h2.86l0.34-5.54c0.03-0.48-0.06-0.84-0.28-1.08c-0.21-0.22-0.54-0.33-0.98-0.33h-11.79v2.03h9.17
		c0.44,0,0.67,0.25,0.67,0.72V19.82z M274.3,11.97h-3.39V0.66h3.39v4.75h3.15v2.28h-3.15V11.97z M271.04,11.85h3.14V7.56h3.14V5.54
		h-3.14V0.78h-3.14V11.85z M263.81,11.56c-1.52,0-2.75-0.4-3.64-1.19c-0.9-0.79-1.35-1.89-1.35-3.26c0-0.93,0.23-1.76,0.68-2.46
		h-1.69V2.38h4.3V0h3.39v2.38h4.2v2.27h-1.57c0.44,0.7,0.66,1.53,0.66,2.46c0,1.37-0.45,2.46-1.34,3.26
		C266.56,11.16,265.34,11.56,263.81,11.56 M257.93,4.53h1.8l-0.07,0.1c-0.48,0.7-0.72,1.53-0.72,2.48c0,1.33,0.44,2.39,1.31,3.16
		c0.87,0.77,2.07,1.16,3.56,1.16c1.49,0,2.69-0.39,3.55-1.16c0.86-0.77,1.3-1.83,1.3-3.16c0-0.95-0.24-1.79-0.7-2.49l-0.07-0.09
		h1.68V2.5h-4.2V0.12h-3.14V2.5h-4.3V4.53z M263.81,9.31c-0.6,0-1.08-0.2-1.44-0.61c-0.35-0.4-0.53-0.93-0.53-1.59
		c0-0.65,0.18-1.19,0.53-1.59c0.36-0.4,0.84-0.6,1.44-0.6c0.58,0,1.06,0.2,1.43,0.6c0.36,0.4,0.54,0.93,0.54,1.59
		c0,0.66-0.18,1.19-0.54,1.59C264.88,9.1,264.4,9.31,263.81,9.31 M263.81,5.04c-0.56,0-1.01,0.19-1.34,0.56
		c-0.33,0.38-0.5,0.88-0.5,1.51c0,0.63,0.17,1.13,0.5,1.51c0.33,0.37,0.78,0.56,1.34,0.56c0.55,0,0.99-0.19,1.33-0.56
		c0.34-0.38,0.51-0.88,0.51-1.51c0-0.62-0.17-1.13-0.51-1.51C264.81,5.23,264.36,5.04,263.81,5.04"/>
	<path style="clip-path:url(#SVGID_00000148643774630963140950000010324148025891051928_);fill:#004294;" d="M297.6,9.35h-2.9v10.53
		h-3.27v-5.17c-0.65,0.68-2.02,1.11-4.1,1.27c-0.64,0.06-2.11,0.08-4.42,0.08h-4.85v-2.15h3.14V7.38h3.02v6.54
		c2.2,0,3.78-0.06,4.73-0.19c1.65-0.2,2.48-0.88,2.48-2.03V0.72h3.27v6.5h2.9V9.35z M289.62,2.77l-0.53,8.32h-2.78V4.08
		c0-0.49-0.21-0.74-0.63-0.74h-6.37V1.19h8.85C289.2,1.19,289.69,1.72,289.62,2.77"/>
	<path style="clip-path:url(#SVGID_00000148643774630963140950000010324148025891051928_);fill:#004294;" d="M294.76,19.94h-3.39
		v-5.08c-0.7,0.63-2.05,1.03-4.03,1.19c-0.63,0.06-2.08,0.08-4.43,0.08h-4.91v-2.28h3.15V7.32h3.15v6.54c2.16,0,3.72-0.06,4.66-0.18
		c1.63-0.2,2.42-0.85,2.42-1.97V0.66h3.39v6.5h2.9v2.25h-2.9V19.94z M291.49,19.82h3.14V9.28h2.9V7.28h-2.9v-6.5h-3.14V11.7
		c0,1.18-0.85,1.88-2.53,2.09c-0.95,0.12-2.54,0.18-4.73,0.18h-0.06V7.44h-2.9v6.54h-3.14v2.03h4.79c2.34,0,3.79-0.03,4.42-0.08
		c2.06-0.16,3.42-0.58,4.06-1.25l0.11-0.11V19.82z M289.15,11.15h-2.9V4.08c0-0.45-0.19-0.68-0.57-0.68h-6.43V1.13h8.91
		c0.53,0,0.93,0.14,1.19,0.41c0.26,0.27,0.37,0.69,0.33,1.23L289.15,11.15z M286.38,11.03h2.66l0.52-8.26
		c0.03-0.51-0.07-0.89-0.3-1.14c-0.23-0.25-0.6-0.37-1.1-0.37h-8.79v2.03h6.31c0.32,0,0.69,0.14,0.69,0.8V11.03z"/>
</g>
</svg>
