<?xml version="1.0" encoding="UTF-8" standalone="no"?>
<svg
   xmlns:dc="http://purl.org/dc/elements/1.1/"
   xmlns:cc="http://creativecommons.org/ns#"
   xmlns:rdf="http://www.w3.org/1999/02/22-rdf-syntax-ns#"
   xmlns:svg="http://www.w3.org/2000/svg"
   xmlns="http://www.w3.org/2000/svg"
   viewBox="0 0 2469.3333 420"
   height="420"
   width="2469.3333"
   xml:space="preserve"
   id="svg2"
   version="1.1"><metadata
     id="metadata8"><rdf:RDF><cc:Work
         rdf:about=""><dc:format>image/svg+xml</dc:format><dc:type
           rdf:resource="http://purl.org/dc/dcmitype/StillImage" /></cc:Work></rdf:RDF></metadata><defs
     id="defs6"><clipPath
       id="clipPath20"
       clipPathUnits="userSpaceOnUse"><path
         id="path18"
         d="M 0,0 H 1990 V 420 H 0 Z" /></clipPath><clipPath
       id="clipPath30"
       clipPathUnits="userSpaceOnUse"><path
         id="path28"
         d="M 0,0 H 19893.6 V 4194.06 H 0 Z" /></clipPath></defs><g
     transform="matrix(1.3333333,0,0,-1.3333333,0,420)"
     id="g10"><g
       transform="translate(-76,-55)"
       id="g12"><g
         id="g14"><g
           clip-path="url(#clipPath20)"
           id="g16"><g
             transform="scale(0.1)"
             id="g22"><g
               id="g24"><g
                 clip-path="url(#clipPath30)"
                 id="g26"><path
                   id="path32"
                   style="fill:#ffffff;fill-opacity:1;fill-rule:nonzero;stroke:none"
                   d="m 3462.15,2017.81 -207.76,-338.16 c -56.88,-92.57 -232.08,-164.68 -232.08,-164.68 l -227.59,-397.77 7.38,-102.61 c 3.14,-55.578 -352.5,-244.75 -460.98,-307.5 H 1330 c -36.9,62.949 -209.9,309.9 -177.88,372.12 12.56,24.07 62.27,59.08 114.39,100.47 l 246.33,395.63 c -51.81,105.5 -87.66,168.92 -64.37,203.67 l 180.23,268.98 c -202.84,0 -715.575,48.87 -715.575,347.89 0,552.56 781.035,525.92 907.045,949.69 0,0 46,-69.91 46,-146.84 0,-283.05 -391.12,-413.04 -391.12,-528.64 0,-161.33 543.35,-196.55 954.41,-196.55 l -524.2,-786.06 57.88,-122.61 -283.58,-460.93 h 556.58 l 221.11,416.08 171.32,110 492.65,818.82 c 669.09,0 954.92,108.84 954.92,228.74 0,79.85 -113.35,162.79 -113.35,330.09 0,165.79 197.81,310.85 197.81,310.85 -100.79,-378.98 373.59,-378.87 373.59,-681.72 0,-426.33 -570.56,-618.96 -1072.04,-618.96 m 752.98,1197.22 c 0,67.93 62.16,274.42 62.16,274.42 0,0 -383.36,-225.75 -383.36,-481.81 0,-178.81 113.35,-285.35 113.35,-330.09 0,-53.33 -231.67,-159.93 -925,-159.93 l -504.41,-838.44 -172.9,-111.04 -210.16,-395.36 h -392.07 l 238.58,387.77 -57.19,121.09 574.01,860.68 c -897.26,0 -1013.75,107.8 -1013.75,126.12 0,50.5 390.59,228.32 390.59,530.26 0,139.94 -138.62,308.34 -138.62,308.34 -66.67,-586 -952.047,-446.12 -952.047,-1111.19 0,-272.38 331.347,-388.97 658.477,-412.16 l -111.53,-166.36 c -42.59,-63.52 -8.94,-133.54 42.92,-238.15 L 1214.5,1226.42 c 0,0 -101.42,-72.84 -123.4,-115.39 -45.68,-89.75 48.98,-223.87 199.8,-470.971 h 1071.46 c 360.25,203.613 508.66,287.5 508.66,372.431 l -6.12,88.7 205.97,359.98 c 53.9,24.5 186.4,91.64 242.18,182.43 l 188.19,306.29 c 538.11,9.99 1101.76,225.49 1101.76,686.88 0,310.9 -387.87,350.88 -387.87,578.26" /><path
                   id="path34"
                   style="fill:#cbc382;fill-opacity:1;fill-rule:nonzero;stroke:none"
                   d="m 3501.25,1949.9 -188.18,-306.29 c -55.78,-90.84 -188.33,-157.93 -242.19,-182.42 l -205.96,-359.98 6.12,-88.76 c 0,-84.868 -148.46,-168.809 -508.66,-372.38 H 1290.92 c -150.88,247.11 -245.49,381.17 -199.8,470.92 21.98,42.6 123.39,115.44 123.39,115.44 l 219.64,352.76 c -51.81,104.61 -85.46,174.63 -42.87,238.11 l 111.52,166.41 c -327.17,23.18 -658.523,139.77 -658.523,412.1 0,665.12 885.433,525.24 952.103,1111.24 0,0 138.62,-168.4 138.62,-308.39 0,-301.89 -390.6,-479.71 -390.6,-530.21 0,-18.36 116.49,-126.11 1013.7,-126.11 l -573.96,-860.74 57.2,-121.04 -238.63,-387.76 h 392.06 l 210.16,395.35 172.95,111.05 504.41,838.44 c 693.33,0 925,106.54 925,159.92 0,44.69 -113.35,151.29 -113.35,330.04 0,256.11 383.33,481.86 383.33,481.86 0,0 -62.17,-206.49 -62.17,-274.41 0,-227.38 387.92,-267.42 387.92,-578.26 0,-461.45 -563.7,-676.89 -1101.77,-686.89 m 795.74,1265.15 c 0,120.83 119.53,478.5 119.53,478.5 0,0 -604.68,-335.07 -604.68,-685.89 0,-168.77 96.8,-308.65 96.8,-308.65 -177.45,-82.21 -531.25,-99.22 -872.81,-99.22 l -518.44,-861.83 -174.94,-112.3 -197.03,-370.76 h -195.66 l 184.83,300.48 -56.3,119.31 633.4,949.86 c -717.72,0 -866.07,22.65 -1027.31,64.05 0,0 332.78,212.62 332.78,510.06 0,197.76 -249.25,501.07 -249.25,501.07 l -92.47,-311.16 c -100.16,-336.95 -913.323,-333.61 -913.323,-992.71 0,-288.6 275.833,-430.99 596.833,-479.13 L 1323,1863.08 c -60.24,-89.85 -28.52,-182.26 17.47,-279.02 l -188.02,-301.89 c 0,0 -103.14,-71.86 -134.23,-133.19 -64.365,-126.84 19.21,-259.82 225.96,-588.921 h 1143.63 c 448.69,253.691 565.12,319.472 565.12,462.911 -0.1,1.31 -2.3,31.51 -4.29,59.19 l 180.65,315.65 c 71.64,35.07 194.04,105.61 253.75,202.78 l 164.89,268.46 c 563.23,22.3 1137.3,264.32 1137.3,767.74 0,341.93 -388.24,427.28 -388.24,578.26" /><path
                   id="path36"
                   style="fill:#206445;fill-opacity:1;fill-rule:nonzero;stroke:none"
                   d="m 4160.6,3318.5 c 0,0 -197.82,-145.07 -197.82,-310.85 0,-167.35 113.35,-250.25 113.35,-330.1 0,-119.89 -285.83,-228.74 -954.93,-228.74 l -492.58,-818.87 -171.33,-109.99 -221.15,-416.03 h -556.59 l 283.58,460.93 -57.88,122.6 524.19,786.01 c -411.05,0 -954.4,35.27 -954.4,196.61 0,115.6 391.12,245.58 391.12,528.64 0,76.92 -45.99,146.84 -45.99,146.84 -125.97,-423.78 -907.049,-397.14 -907.049,-949.75 0,-299.02 512.729,-347.84 715.559,-347.84 l -180.22,-268.98 c -23.29,-34.74 12.56,-98.17 64.36,-203.67 L 1266.5,1179.69 c -52.07,-41.44 -101.83,-76.4 -114.34,-100.47 -32.08,-62.23 140.93,-309.169 177.87,-372.118 h 1011.13 c 108.48,62.687 464.07,251.918 460.93,307.488 l -7.38,102.62 227.64,397.76 c 0,0 175.15,72.12 232.03,164.69 l 207.75,338.16 c 501.49,0 1072.04,192.63 1072.04,618.96 0,302.84 -474.32,302.74 -373.57,681.72" /><path
                   id="path38"
                   style="fill:#206445;fill-opacity:1;fill-rule:nonzero;stroke:none"
                   d="m 2848.62,603.59 c -12.25,-12.449 -27.16,-18.68 -44.69,-18.68 -17.48,0 -32.4,6.231 -44.64,18.68 -12.14,12.449 -18.26,27.469 -18.26,45.16 0,17.531 6.12,32.441 18.36,44.852 12.35,12.449 27.16,18.679 44.54,18.679 17.48,0 32.39,-6.23 44.69,-18.679 12.24,-12.411 18.42,-27.321 18.42,-44.852 0,-17.691 -6.18,-32.711 -18.42,-45.16 m -44.64,118.629 c -20.15,0 -37.31,-7.168 -51.54,-21.449 -14.3,-14.34 -21.46,-31.668 -21.46,-51.911 0,-20.461 7.06,-37.89 21.25,-52.23 14.23,-14.5 31.5,-21.668 51.75,-21.668 20.3,0 37.63,7.168 51.91,21.668 14.29,14.441 21.4,31.82 21.4,52.23 0,20.301 -7.11,37.571 -21.4,51.911 -14.28,14.281 -31.61,21.449 -51.91,21.449" /><path
                   id="path40"
                   style="fill:#206445;fill-opacity:1;fill-rule:nonzero;stroke:none"
                   d="m 2815.1,652.301 c -3.04,-1.199 -7.6,-1.781 -13.61,-1.781 h -12.93 v 29.101 h 12.25 c 7.9,0 13.65,-0.992 17.26,-2.992 3.62,-1.981 5.39,-5.957 5.39,-11.77 0,-6.218 -2.77,-10.359 -8.36,-12.558 m 22.13,13.871 c 0,10.199 -4.19,17.008 -12.51,20.457 -4.66,1.941 -11.98,2.93 -22.03,2.93 h -28.15 V 608.66 h 14.02 v 31.922 h 11.2 c 7.53,0 12.82,-0.891 15.85,-2.621 5.03,-3.031 7.59,-9.211 7.59,-18.57 v -6.442 l 0.32,-2.617 c 0,-0.312 0.1,-0.633 0.16,-0.891 0.09,-0.261 0.15,-0.519 0.26,-0.781 h 13.29 l -0.53,0.988 c -0.31,0.684 -0.57,2.102 -0.73,4.192 -0.1,2.14 -0.21,4.191 -0.21,6.07 v 5.91 c 0,4.09 -1.41,8.27 -4.29,12.559 -2.93,4.242 -7.48,6.863 -13.66,7.902 4.92,0.84 8.8,2.098 11.57,3.93 5.23,3.398 7.85,8.738 7.85,15.961" /><path
                   id="path42"
                   style="fill:#206445;fill-opacity:1;fill-rule:nonzero;stroke:none"
                   d="m 5746.03,3326.47 v -453.25 c 0,-61.93 26.92,-94.23 87.06,-94.23 60.13,0 87.95,32.3 87.95,94.23 v 453.25 h 123.87 v -454.14 c 0,-142.71 -84.38,-202.84 -211.82,-202.84 -127.46,0 -210.92,60.13 -210.92,202.84 v 454.14 h 123.86" /><path
                   id="path44"
                   style="fill:#206445;fill-opacity:1;fill-rule:nonzero;stroke:none"
                   d="m 6305.14,2678.46 v 648.01 h 135.52 l 172.33,-384.13 h 1.79 v 384.13 h 113.09 v -648.01 h -118.48 l -189.37,418.25 h -1.8 v -418.25 h -113.08" /><path
                   id="path46"
                   style="fill:#206445;fill-opacity:1;fill-rule:nonzero;stroke:none"
                   d="m 6988.1,2678.46 v 648.01 h 123.86 V 2678.46 H 6988.1" /><path
                   id="path48"
                   style="fill:#206445;fill-opacity:1;fill-rule:nonzero;stroke:none"
                   d="m 7322.86,3326.47 h 122.07 l 113.98,-463.12 h 1.8 l 113.08,463.12 h 121.17 L 7629.81,2678.46 H 7488.9 l -166.04,648.01" /><path
                   id="path50"
                   style="fill:#206445;fill-opacity:1;fill-rule:nonzero;stroke:none"
                   d="m 7998.65,2678.46 v 648.01 h 339.27 v -109.49 h -215.41 v -148.99 h 164.25 v -109.5 h -164.25 v -170.53 h 224.38 v -109.5 h -348.24" /><path
                   id="path52"
                   style="fill:#206445;fill-opacity:1;fill-rule:nonzero;stroke:none"
                   d="m 8705.87,3044.66 h 63.71 c 54.76,0 87.97,26.91 87.97,89.74 0,62.83 -33.21,89.75 -87.97,89.75 h -63.71 z m 166.94,-366.2 -107.71,263.88 h -59.23 v -263.88 h -123.86 v 648.01 h 179.5 c 148.99,0 219.89,-71.8 219.89,-193.87 0,-80.77 -28.72,-139.11 -97.83,-165.13 l 122.06,-289.01 h -132.82" /><path
                   id="path54"
                   style="fill:#206445;fill-opacity:1;fill-rule:nonzero;stroke:none"
                   d="m 9489.36,3146.07 c -20.65,61.04 -47.57,87.06 -90.65,87.06 -43.98,0 -68.22,-26.93 -68.22,-70.91 0,-97.83 276.45,-105.01 276.45,-307.85 0,-111.29 -76.29,-184.88 -206.43,-184.88 -100.52,0 -178.61,54.74 -211.82,182.2 l 122.07,26.02 c 14.35,-78.08 59.23,-105.91 96.02,-105.91 43.08,0 76.3,28.72 76.3,77.19 0,122.07 -276.44,123.85 -276.44,305.16 0,111.29 66.41,181.3 194.77,181.3 110.39,0 177.7,-65.53 199.24,-157.06 l -111.29,-32.32" /><path
                   id="path56"
                   style="fill:#206445;fill-opacity:1;fill-rule:nonzero;stroke:none"
                   d="m 9856.41,2678.46 v 648.01 h 123.85 v -648.01 h -123.85" /><path
                   id="path58"
                   style="fill:#206445;fill-opacity:1;fill-rule:nonzero;stroke:none"
                   d="M 10608.5,3326.47 V 3216.98 H 10464 v -538.52 h -123.8 v 538.52 h -144.5 v 109.49 h 412.8" /><path
                   id="path60"
                   style="fill:#206445;fill-opacity:1;fill-rule:nonzero;stroke:none"
                   d="m 11012.4,3065.29 105,261.18 h 131.9 l -176.8,-385.94 v -262.07 h -123.9 v 262.07 l -176.8,385.94 h 132 l 108.6,-261.18" /><path
                   id="path62"
                   style="fill:#206445;fill-opacity:1;fill-rule:nonzero;stroke:none"
                   d="m 11702.4,3086.54 c -75,0 -122.9,-64.53 -122.9,-181.37 0,-116.84 47.9,-181.37 122.9,-181.37 75,0 123,64.53 123,181.37 0,116.84 -48,181.37 -123,181.37 z m 0,-416.8 c -123.8,0 -185.7,104.64 -185.7,235.43 0,130.8 61.9,235.44 185.7,235.44 123.8,0 185.7,-104.64 185.7,-235.44 0,-130.79 -61.9,-235.43 -185.7,-235.43" /><path
                   id="path64"
                   style="fill:#206445;fill-opacity:1;fill-rule:nonzero;stroke:none"
                   d="m 12086,2678.46 v 399.36 h -76.7 v 54.06 h 76.7 v 51.45 c 0,107.25 36.6,133.41 110.7,133.41 18.3,0 37.5,-2.61 55.8,-4.36 v -55.81 c -14.8,1.75 -31.4,6.1 -45.3,6.1 -42.7,0 -58.4,-13.95 -58.4,-64.52 v -66.27 h 98.5 v -54.06 h -98.5 v -399.36 h -62.8" /><path
                   id="path66"
                   style="fill:#206445;fill-opacity:1;fill-rule:nonzero;stroke:none"
                   d="m 6193.95,1838.94 c -49.08,145.06 -113.07,206.93 -215.47,206.93 -104.53,0 -162.12,-63.99 -162.12,-168.53 0,-232.53 657.04,-249.59 657.04,-731.71 0,-264.521 -181.32,-439.458 -490.65,-439.458 -238.93,0 -424.52,130.137 -503.45,433.058 l 290.12,61.87 c 34.13,-185.6 140.79,-251.729 228.27,-251.729 102.39,0 181.32,68.259 181.32,183.459 0,290.12 -657.05,294.39 -657.05,725.31 0,264.53 157.87,430.92 462.92,430.92 262.4,0 422.4,-155.72 473.59,-373.33 l -264.52,-76.79" /><path
                   id="path68"
                   style="fill:#206445;fill-opacity:1;fill-rule:nonzero;stroke:none"
                   d="m 6976.93,1184.03 c 0,-170.67 74.66,-217.589 192,-217.589 117.32,0 191.98,46.919 191.98,217.589 v 627.18 c 0,170.67 -74.66,217.59 -191.98,217.59 -117.34,0 -192,-46.92 -192,-217.59 z m -294.39,588.78 c 0,379.72 200.53,516.25 486.39,516.25 285.86,0 486.39,-136.53 486.39,-516.25 v -550.38 c 0,-379.719 -200.53,-516.258 -486.39,-516.258 -285.86,0 -486.39,136.539 -486.39,516.258 v 550.38" /><path
                   id="path70"
                   style="fill:#206445;fill-opacity:1;fill-rule:nonzero;stroke:none"
                   d="m 8184.42,2267.73 v -1077.3 c 0,-147.2 64.01,-223.989 206.94,-223.989 142.92,0 209.06,76.789 209.06,223.989 v 1077.3 h 294.39 V 1188.29 c 0,-339.188 -200.53,-482.118 -503.45,-482.118 -302.93,0 -501.33,142.93 -501.33,482.118 v 1079.44 h 294.39" /><path
                   id="path72"
                   style="fill:#206445;fill-opacity:1;fill-rule:nonzero;stroke:none"
                   d="M 10089.5,2267.73 V 2007.47 H 9746.06 V 727.512 H 9451.67 V 2007.47 h -343.46 v 260.26 h 981.29" /><path
                   id="path74"
                   style="fill:#206445;fill-opacity:1;fill-rule:nonzero;stroke:none"
                   d="M 10302.9,727.512 V 2267.73 h 294.4 v -614.38 h 416 v 614.38 h 294.4 V 727.512 h -294.4 v 665.568 h -416 V 727.512 h -294.4" /><path
                   id="path76"
                   style="fill:#206445;fill-opacity:1;fill-rule:nonzero;stroke:none"
                   d="M 12075.8,727.512 V 2267.73 h 767.9 v -260.26 h -473.5 v -354.12 h 371.2 v -260.27 h -371.2 V 727.512 h -294.4" /><path
                   id="path78"
                   style="fill:#206445;fill-opacity:1;fill-rule:nonzero;stroke:none"
                   d="M 13044.3,727.512 V 2267.73 h 294.4 V 987.77 h 473.6 V 727.512 h -768" /><path
                   id="path80"
                   style="fill:#206445;fill-opacity:1;fill-rule:nonzero;stroke:none"
                   d="m 14281.6,1184.03 c 0,-170.67 74.7,-217.589 192,-217.589 117.4,0 192,46.919 192,217.589 v 627.18 c 0,170.67 -74.6,217.59 -192,217.59 -117.3,0 -192,-46.92 -192,-217.59 z m -294.4,588.78 c 0,379.72 200.6,516.25 486.4,516.25 285.9,0 486.4,-136.53 486.4,-516.25 v -550.38 c 0,-379.719 -200.5,-516.258 -486.4,-516.258 -285.8,0 -486.4,136.539 -486.4,516.258 v 550.38" /><path
                   id="path82"
                   style="fill:#206445;fill-opacity:1;fill-rule:nonzero;stroke:none"
                   d="m 15514.7,1597.88 h 151.5 c 130.1,0 209.1,64 209.1,213.33 0,149.32 -79,213.33 -209.1,213.33 h -151.5 z m 396.8,-870.368 -256,627.168 h -140.8 V 727.512 h -294.3 V 2267.73 h 426.6 c 354.1,0 522.7,-170.67 522.7,-460.78 0,-192 -68.3,-330.67 -232.6,-392.53 l 290.2,-686.908 h -315.8" /><path
                   id="path84"
                   style="fill:#206445;fill-opacity:1;fill-rule:nonzero;stroke:none"
                   d="M 16444.9,727.512 V 2267.73 h 294.4 V 727.512 h -294.4" /><path
                   id="path86"
                   style="fill:#206445;fill-opacity:1;fill-rule:nonzero;stroke:none"
                   d="m 17336.7,987.77 h 102.4 c 162.1,0 256,76.8 256,307.18 v 405.33 c 0,217.59 -72.6,307.19 -256,307.19 h -102.4 z m -294.4,1279.96 h 409.6 c 337,0 524.8,-145.06 537.6,-533.32 v -473.58 c -12.8,-388.26 -200.6,-533.318 -537.6,-533.318 h -409.6 V 2267.73" /><path
                   id="path88"
                   style="fill:#206445;fill-opacity:1;fill-rule:nonzero;stroke:none"
                   d="m 18565.5,1312.02 h 292.3 l -143,622.92 h -4.2 z m -420.2,-584.508 381.8,1540.218 h 377.6 l 371.2,-1540.218 h -281.6 l -74.7,324.248 h -407.4 L 18429,727.512 h -283.7" /></g></g></g></g></g></g></g></svg>